<svg  viewBox="0 0 32 32" fill="none" xmlns="http://www.w3.org/2000/svg">
<path fill-rule="evenodd" clip-rule="evenodd" d="M22 8.5H17.5V10H20.5V25H19V26.5H10V25H8.5V13H7V28H22V25H23.5V23.5H26.5V22H28V14.5H26.5V13H23.5V11.5H22V8.5ZM22 16H23.5V14.5H25V16H26.5V20.5H25V22H23.5V20.5H22V16Z" fill="#5C5641"/>
<path d="M8.5 8.5H10V10H8.5V8.5Z" fill="#5C5641"/>
<path d="M8.5 4H7V5.5H5.5V7H4V10H5.5V11.5H7V13H8.5V8.5H10V13H11.5V14.5H13V13H14.5V11.5H16V10H17.5V8.5H20.5V7H19V5.5H14.5V4H11.5V5.5H8.5V4Z" fill="white"/>
<path opacity="0.6" d="M8.5 4H7V5.5H5.5V7H4V10H5.5V11.5H7V13H8.5V8.5H10V13H11.5V14.5H13V13H14.5V11.5H16V10H17.5V8.5H20.5V7H19V5.5H14.5V4H11.5V5.5H8.5V4Z" fill="#CB8F33"/>
<path d="M19 10H17.5V11.5H19V10Z" fill="white"/>
<path d="M10 16H11.5V17.5H10V16Z" fill="white"/>
<path d="M10 20.5H11.5V22H10V20.5Z" fill="white"/>
<path d="M16 13H17.5V14.5H16V13Z" fill="white"/>
<path d="M16 16H14.5V17.5H16V16Z" fill="white"/>
<path d="M17.5 19H19V20.5H17.5V19Z" fill="white"/>
<path d="M14.5 19H13V20.5H14.5V19Z" fill="white"/>
<path d="M16 22H17.5V23.5H16V22Z" fill="white"/>
<path d="M14.5 23.5H13V25H14.5V23.5Z" fill="white"/>
<path fill-rule="evenodd" clip-rule="evenodd" d="M8.5 10H10V13H11.5V14.5H13V13H14.5V11.5H16V10H17.5V11.5H19V10H20.5V25H19V26.5H10V25H8.5V10ZM10 16H11.5V17.5H10V16ZM11.5 20.5H10V22H11.5V20.5ZM16 13H17.5V14.5H16V13ZM14.5 16H16V17.5H14.5V16ZM17.5 19H19V20.5H17.5V19ZM13 19H14.5V20.5H13V19ZM16 22H17.5V23.5H16V22ZM13 23.5H14.5V25H13V23.5Z" fill="#CB8F33"/>
<g opacity="0.6">
<path d="M19 10H17.5V11.5H19V10Z" fill="#CB8F33"/>
<path d="M10 16H11.5V17.5H10V16Z" fill="#CB8F33"/>
<path d="M10 20.5H11.5V22H10V20.5Z" fill="#CB8F33"/>
<path d="M16 13H17.5V14.5H16V13Z" fill="#CB8F33"/>
<path d="M16 16H14.5V17.5H16V16Z" fill="#CB8F33"/>
<path d="M17.5 19H19V20.5H17.5V19Z" fill="#CB8F33"/>
<path d="M14.5 19H13V20.5H14.5V19Z" fill="#CB8F33"/>
<path d="M16 22H17.5V23.5H16V22Z" fill="#CB8F33"/>
<path d="M14.5 23.5H13V25H14.5V23.5Z" fill="#CB8F33"/>
</g>
</svg>
