<svg  viewBox="0 0 48 48" fill="none" xmlns="http://www.w3.org/2000/svg">
<path d="M29.3325 8H36.4436V15.1111H32.8881V11.5555H29.3325V8Z" fill="#FFE65B"/>
<path d="M29.3321 15.1112L29.3325 11.5555L25.7765 11.5557V18.6667H32.8876L32.8881 15.1111L29.3321 15.1112Z" fill="#FFE65B"/>
<path d="M25.7765 18.6667H22.2223V11.5557H18.6667V15.1112H15.1112V18.6667H22.2223L22.2205 25.7778L18.6667 25.7778V29.3334H15.1112V32.8889L22.2205 32.8889V40H25.7761V32.8889H22.2205V25.7778H25.7761L25.7765 18.6667Z" fill="#FFE65B"/>
<path d="M29.3321 29.3334V25.7778L25.7761 25.7778V32.8889L32.8876 32.8889V29.3334H29.3321Z" fill="#FFE65B"/>
<path d="M29.3325 22.2223H36.4436V29.3334L32.8876 29.3334L32.8881 25.7779L29.3321 25.7778L29.3325 22.2223Z" fill="#FFE65B"/>
<path d="M11.5552 22.2223V29.3334L15.1112 29.3334L15.1107 25.7779L18.6667 25.7778L18.6663 22.2223H11.5552Z" fill="#FFE65B"/>
<path d="M11.5552 8V15.1111L15.1112 15.1112L15.1107 11.5555L18.6667 11.5557L18.6663 8H11.5552Z" fill="#FFE65B"/>
</svg>
