<svg  viewBox="0 0 48 48" fill="none" xmlns="http://www.w3.org/2000/svg">
<path d="M15.1107 8.00006H18.6663V11.5556H15.1107V8.00006Z" fill="#3FE48B"/>
<path d="M18.6663 22.2223H15.1107V18.6667H11.5552V11.5556H15.1107V15.1112H18.6663V11.5556H22.2218V18.6667H18.6663V22.2223Z" fill="#3FE48B"/>
<path fill-rule="evenodd" clip-rule="evenodd" d="M22.2218 25.7778V22.2223H18.6663V25.7778H11.5552V32.889H15.1107V36.4445H22.2218V40.0001H25.7774V36.4445H32.8885V32.889H36.4441V25.7778H29.333V22.2223H32.8885V18.6667H36.4441V11.5556H32.8885V8.00006H29.333V11.5556H25.7774V18.6667H29.333V22.2223H25.7774V25.7778H22.2218ZM22.2218 29.3334V25.7778H18.6663V29.3334H15.1107V32.889H18.6663V29.3334H22.2218ZM25.7774 29.3334H22.2218V32.889H25.7774V29.3334ZM29.333 29.3334V25.7778H25.7774V29.3334H29.333ZM29.333 15.1112V11.5556H32.8885V15.1112H29.333ZM29.333 29.3334H32.8885V32.889H29.333V29.3334Z" fill="#3FE48B"/>
</svg>
