<svg  viewBox="0 0 32 32" fill="none" xmlns="http://www.w3.org/2000/svg">
<path fill-rule="evenodd" clip-rule="evenodd" d="M18.3704 5.33331H16V7.70368H13.6297V10.0741H11.2593V12.4444H8.88893V14.8148H6.51855V17.1852H8.88893V19.5555H13.6297V21.9259H18.3704V19.5555H20.7408V17.1852H23.1111V14.8148H25.4815V12.4444H23.1111V10.0741H20.7408V7.70368H18.3704V5.33331ZM16 10.0741H18.3704V12.4444H16V10.0741ZM16 14.8148H13.6297V12.4444H16V14.8148ZM18.3704 14.8148V17.1852H16V14.8148H18.3704ZM18.3704 14.8148H20.7408V12.4444H18.3704V14.8148Z" fill="#E47A3F"/>
<path d="M8.88893 21.9259H6.51855V24.2963H8.88893V21.9259Z" fill="#E47A3F"/>
<path d="M13.6297 24.2963H11.2593V26.6666H13.6297V24.2963Z" fill="#E47A3F"/>
</svg>
