<svg width="94" height="121" viewBox="0 0 94 121" fill="none" xmlns="http://www.w3.org/2000/svg">
<path d="M71.7686 46.73C69.9704 46.73 68.5126 45.2722 68.5126 43.474C68.5126 43.1932 68.5482 42.9207 68.615 42.6607C67.626 42.7845 66.8306 42.981 66.4316 43.2725C64.5305 44.3726 65.2148 47.3278 65.6012 49.2089C65.9135 50.7296 66.2262 51.9866 67.0779 53.0115C67.929 54.0357 69.4926 55.1709 71.0567 56.4323C71.7785 57.0144 72.4825 57.5821 73.0266 58.1262C74.3656 59.4652 74.1975 61.2707 74.0561 62.7898C74.0156 63.2254 73.9772 63.6375 73.9772 64.0082C73.9772 65.0881 76.2053 65.3919 77.8663 65.6184C78.7643 65.7408 79.4965 65.8407 79.6216 66.0283C79.9781 66.563 84.3748 70.1279 84.9094 60.681C85.444 51.2341 79.5623 44.2232 78.2551 43.2725C78.249 43.2681 78.237 43.2592 78.237 43.2592C78.106 43.1632 77.9789 43.0698 77.1262 42.8567C76.7003 42.7502 75.8928 42.6515 74.9011 42.5826C74.9816 42.8659 75.0246 43.1649 75.0246 43.474C75.0246 45.2722 73.5669 46.73 71.7686 46.73Z" fill="white"/>
<path fill-rule="evenodd" clip-rule="evenodd" d="M71.278 68.1697C74.2363 68.1697 83.6587 69.0463 85.4116 75.0722C86.6536 79.3415 84.3759 83.0608 82.8644 85.5289C82.2425 86.5443 81.7504 87.348 81.6865 87.8909C81.659 88.1244 81.6316 88.4216 81.5996 88.7679C81.3763 91.1835 80.9325 95.9857 78.7284 98.1898C76.7723 100.146 76.7308 103.885 76.7076 105.972C76.7009 106.574 76.6958 107.038 76.6468 107.283C76.4276 108.379 74.7842 110.57 73.6886 107.283C72.8699 104.827 72.3569 106.531 71.8299 108.281C71.6517 108.873 71.4718 109.47 71.278 109.913C70.5113 111.666 68.7583 111.556 68.6487 108.489C68.624 107.797 68.6105 107.028 68.5968 106.25C68.5496 103.575 68.5006 100.795 67.9914 100.71C67.7738 100.673 67.2801 101.645 66.6335 102.919C65.3267 105.492 63.3951 109.295 61.8559 108.489C59.5551 107.283 59.1568 104.425 59.5774 102.701C59.6471 102.416 59.7262 102.101 59.8084 101.773C60.222 100.124 60.7152 98.1581 60.5001 98.0335C60.3119 97.9246 59.6323 98.3506 58.7029 98.9333C56.4181 100.366 52.6234 102.745 50.9065 100.449C50.2348 99.3935 49.2945 96.6501 50.9065 94.1201C52.9215 90.9577 53.1436 88.5859 49.6464 90.8726C46.1491 93.1592 44.535 93.6973 44.4005 91.3433C44.266 88.9894 42.7864 84.9093 41.7776 87.8909C40.7687 90.8726 37.0025 93.7869 37.3387 87.8909C37.675 81.9949 34.3123 76.0093 28.9319 73.1845C23.5515 70.3598 25.7709 68.2077 29.9407 70.6961C34.1105 73.1846 47.2924 71.8395 49.6464 70.6961C52.0003 69.5528 56.4391 67.4006 61.1469 68.7457C65.7666 70.0656 67.6016 69.3498 69.0667 68.7783C69.0947 68.7674 69.1225 68.7565 69.1503 68.7457C70.3339 68.2849 71.0619 68.1697 71.278 68.1697ZM66.0762 75.662C64.9228 76.2027 60.3809 77.0317 57.9297 76.0945C55.4785 75.1573 52.0787 74.905 51.1169 74.905C50.1436 74.905 45.9983 74.905 52.1262 77.5724C53.8653 78.3295 54.8999 79.1135 55.7555 79.762C56.6153 80.4136 57.2945 80.9283 58.3262 81.1411C60.4701 81.5831 63.5266 82.1529 66.0762 80.7085C67.3434 79.9906 68.6178 78.9771 69.6926 78.1224C70.6099 77.3928 71.3818 76.7789 71.8798 76.5631C72.9612 76.0945 74.8237 75.1213 72.9972 74.905L72.9781 74.9027C71.8131 74.7647 68.7613 74.4033 66.0762 75.662Z" fill="white"/>
<path d="M75.3161 25.4903C74.046 25.4903 45.1795 26.0975 43.6891 26.1526C42.1988 26.2078 39.3285 26.4838 36.2928 29.2987C33.2571 32.1137 31.1045 35.591 33.6983 37.4125C36.2928 39.2339 37.7832 39.2339 42.9714 37.9644C48.1597 36.6949 53.6238 37.9092 55.0592 39.1235C56.4941 40.3378 57.9845 43.5943 57.874 46.1885C57.7635 48.7827 57.4328 48.562 56.0528 46.1885C55.2003 44.7222 52.2407 43.1504 48.8144 43.0745C49.5914 43.766 50.0813 44.7736 50.0813 45.8957C50.0813 47.9804 48.3912 49.6704 46.3067 49.6704C44.2215 49.6704 42.532 47.9804 42.532 45.8957C42.532 45.5008 42.5926 45.1201 42.7049 44.7623C42.572 44.8477 42.4403 44.9366 42.3092 45.0294C37.6446 48.3275 36.5998 48.4483 35.1238 48.6191C34.8704 48.6483 34.6046 48.6791 34.3056 48.7275C32.2635 49.0587 26.4124 51.1009 31.7112 55.2957C33.5567 56.7569 35.2617 58.7939 36.945 60.805C40.0943 64.5679 43.168 68.2401 46.9451 67.8804C51.7234 67.4253 53.2755 64.0063 54.1362 62.1084C54.3197 61.7044 54.472 61.3693 54.6174 61.1465C55.4456 59.877 56.3287 58.6075 57.1013 59.0491C57.434 59.2391 57.1737 59.6233 56.8174 60.1489C56.3462 60.8447 55.7071 61.7885 56.0528 62.8576C56.6595 64.7342 59.0885 64.5134 60.192 63.6855C60.7268 63.2844 60.9378 62.9482 61.0888 62.7079C61.2492 62.4524 61.3409 62.3056 61.6823 62.3056C61.8827 62.3056 61.9669 62.5628 62.083 62.9172C62.3514 63.7351 62.7889 65.0705 65.2148 64.955C68.6924 64.7894 71.2868 63.4647 71.1764 61.4777C71.1264 60.575 70.0286 59.7293 68.6481 58.6663C66.9898 57.3893 64.9246 55.7987 63.78 53.4191C61.6823 49.0587 61.7928 39.8411 66.8157 39.1235C67.926 38.9649 68.8447 38.8117 69.656 38.6763C72.5157 38.1996 74.041 37.9452 77.9099 38.4612C82.4316 39.064 82.2893 35.8713 82.1851 33.545C82.1751 33.3156 82.1651 33.0946 82.1601 32.8864C82.1052 30.5682 79.4558 25.4168 75.3161 25.4903Z" fill="white"/>
<path d="M82.8594 23.2135C87.2062 23.455 84.4691 19.7524 82.8594 18.706C81.6386 18.044 78.8193 16.7298 77.3089 16.7696C75.4209 16.8193 72.1916 17.1671 70.403 17.1174C68.6144 17.0677 67.9685 14.5339 65.4844 14.5835C63.0002 14.6332 59.0753 16.6702 57.1376 16.4218C55.2 16.1734 56.0446 14.1861 53.1574 13.9873C50.2702 13.7886 42.978 14.7822 40.7919 15.5275C38.6059 16.2727 30.8553 19.204 28.3712 23.5264C25.887 27.8488 29.4145 27.2526 30.8553 26.7061C32.2961 26.1596 38.7052 21.6037 40.2951 21.6037C41.8849 21.6037 40.8416 23.5761 42.6302 23.5264C44.4188 23.4767 45.015 21.3404 46.9029 21.092C48.7909 20.8435 47.996 23.2135 49.4368 23.2135C50.8776 23.2135 51.8695 20.5573 53.1574 20.5573C54.4453 20.5573 53.9623 23.2135 55.1697 23.2135C56.3771 23.2135 61.1261 19.8329 63.0579 19.8329C64.9897 19.8329 63.6213 21.6037 65.0702 21.6037C66.5191 21.6037 67.9679 19.9134 69.9802 19.8329C71.9925 19.7524 71.1071 22.7306 72.7169 23.2135C74.3268 23.6965 76.1781 21.8452 77.7879 21.6037C79.3978 21.3623 78.5127 22.9721 82.8594 23.2135Z" fill="white"/>
<path fill-rule="evenodd" clip-rule="evenodd" d="M87.4608 47.2873C86.4249 45.522 85.7736 43.9713 85.7736 42.3863C85.7736 40.7392 86.3825 39.1991 87.2845 37.4801C87.506 37.058 87.735 36.6428 87.9741 36.2096L87.9804 36.198C88.2169 35.7695 88.4656 35.3186 88.6988 34.8703C89.1577 33.9882 89.6298 32.9809 89.9051 31.9102C90.1469 30.9697 90.2555 30.1471 90.2072 29.3958C90.1736 28.8728 90.0678 28.4474 89.9427 28.1015C90.0028 28.0376 90.0796 27.9588 90.1773 27.8629C90.2328 27.8083 90.2984 27.7452 90.3716 27.6747C90.7028 27.3559 91.1899 26.8872 91.6074 26.3815C92.1602 25.7119 92.7203 24.8414 93.0318 23.7107C93.3457 22.5715 93.3639 21.3263 93.0614 19.965C92.5692 17.7503 91.7863 15.9481 90.3041 14.8146C88.8314 13.6883 87.1376 13.6173 86.102 13.5741C85.0589 13.5307 84.6877 13.4888 84.1391 13.1895C83.4585 12.8183 82.3851 11.9526 80.5117 9.73068C78.1876 6.97426 74.209 4.52753 69.4166 2.85904C64.5697 1.17158 58.6763 0.202695 52.3261 0.58181C39.9607 1.32004 28.6164 4.21896 18.2545 14.2956C13.4189 18.9981 11.8603 21.162 11.2877 22.843C11.1529 23.2386 11.0836 23.5791 11.0462 23.763C11.0428 23.7797 11.0397 23.7951 11.0368 23.8092C11.0274 23.8545 11.0205 23.8858 11.0158 23.9064C10.9627 23.9852 10.7585 24.2575 10.1421 24.8299C9.2999 25.6119 8.56145 26.1808 7.87667 26.6855C7.75288 26.7767 7.62423 26.8704 7.49252 26.9663C6.94352 27.3661 6.34135 27.8047 5.81668 28.2644C4.26442 29.6247 3.26824 31.2437 2.58521 34.0808C1.90789 36.8944 2.08005 38.9988 3.17819 40.8029C3.66042 41.5951 4.25777 42.2144 4.71365 42.676C4.79185 42.7551 4.86684 42.8306 4.93911 42.9034C5.32819 43.295 5.63868 43.6076 5.94965 43.9926C6.42822 44.5851 6.81994 45.0414 7.12065 45.3917L7.15512 45.4319C7.38434 45.699 7.52439 45.8644 7.6179 45.9816C7.59531 46.1545 7.54083 46.4649 7.43802 47.0419C7.32478 47.6775 7.18089 48.4998 7.0604 49.4455C6.81958 51.336 6.66506 53.7671 7.01711 56.4326C7.20805 57.8783 7.14651 58.5226 7.10752 58.749C7.09974 58.7544 7.09092 58.7605 7.08115 58.7673C6.89878 58.8935 6.38111 59.2516 5.95984 59.7665C5.44269 60.3986 4.20042 62.1811 3.09042 64.109C2.52831 65.0853 1.96413 66.1603 1.5331 67.1951C1.13245 68.157 0.721848 69.3699 0.721848 70.5263C0.721848 72.1834 1.18303 74.3492 2.72321 76.0147C4.38942 77.8165 6.89041 78.5801 9.97173 78.0665C10.257 78.019 10.5173 77.9747 10.7571 77.9339C11.615 77.788 12.2093 77.6868 12.7437 77.6411C13.3481 77.5893 13.6558 77.6347 13.9068 77.7197C14.5714 77.9448 15.5581 78.6585 18.1536 81.4858C19.8321 83.3141 22.2351 86.3663 25.0072 89.8873C26.2509 91.4671 27.569 93.1412 28.9292 94.8414C33.1902 100.168 37.8918 105.783 41.558 108.726C45.3088 111.736 51.5846 114.563 57.1894 116.645C60.0382 117.703 62.8015 118.601 65.1179 119.26C67.3726 119.902 69.3727 120.367 70.6187 120.48C72.7405 120.673 74.4998 119.429 75.6571 118.352C76.9104 117.185 78.0592 115.649 79.0319 114.151C80.9889 111.139 82.5342 107.811 83.0624 106.563C83.1584 106.336 83.3495 105.906 83.6127 105.314C84.5571 103.19 86.4304 98.9765 88.1726 94.5505C89.2944 91.7007 90.394 88.6858 91.1997 85.9649C91.978 83.3361 92.5802 80.6719 92.4927 78.6601C92.3486 75.3469 91.8282 73.6841 90.9357 72.3649C90.7821 72.138 90.6201 71.9263 90.5128 71.7861C90.4945 71.7621 90.4778 71.7403 90.463 71.7208C90.3451 71.5658 90.2848 71.4805 90.2361 71.4C90.1688 71.2885 90.0484 71.0668 89.9411 70.4993C89.7148 69.3031 89.8466 67.5596 90.1288 65.5495C90.2109 64.9654 90.2901 64.455 90.3689 63.9473C90.4295 63.557 90.4899 63.1682 90.5511 62.7485C90.6744 61.9032 90.7921 60.9887 90.7921 60.2203C90.7921 59.6035 90.8573 59.0503 90.9373 58.3721C90.9846 57.9709 91.0371 57.5259 91.0843 56.9981C91.1834 55.89 91.2721 54.2422 90.5824 52.7502C90.1831 51.7505 89.628 50.7913 89.1002 49.9325C88.8697 49.5574 88.6527 49.214 88.4419 48.8804C88.1091 48.3536 87.7917 47.8513 87.4608 47.2873ZM88.2357 53.7678C87.8062 52.6633 87.0826 51.5168 86.3166 50.3031C84.8452 47.9716 83.2172 45.3921 83.2172 42.3863C83.2172 39.5393 84.5386 37.1444 85.7301 34.9849C86.4514 33.6775 87.1251 32.4565 87.4293 31.2737C87.8692 29.5625 87.5891 29.0249 87.3746 28.6132C87.1959 28.2703 87.0628 28.0147 87.4293 27.2409C87.6735 26.7251 88.1397 26.2752 88.6462 25.7864C89.8119 24.6615 91.1906 23.3309 90.5659 20.5196C89.6697 16.4867 88.1464 16.2179 85.9955 16.1283C83.8447 16.0387 82.4108 15.949 78.5573 11.3785C74.7037 6.808 64.4872 2.41669 52.4784 3.13363C40.4697 3.85058 29.8051 6.6288 20.0368 16.1283C14.0226 21.9769 13.7495 23.3074 13.5494 24.282C13.4245 24.8903 13.3281 25.3599 11.8815 26.7032C10.7428 27.7606 9.77634 28.4652 8.94986 29.0678C7.04449 30.4571 5.88316 31.3039 5.07058 34.6792C4.15336 38.4891 5.2914 39.6329 6.73542 41.0841C7.12556 41.4761 7.53805 41.8907 7.93835 42.3863C8.3926 42.9487 8.76331 43.3806 9.0631 43.7298C10.0053 44.8275 10.2468 45.1088 10.1788 46.0606C10.158 46.3515 10.0795 46.7916 9.97882 47.3554C9.64535 49.2236 9.06956 52.4492 9.55147 56.0978C10.0408 59.8025 9.27615 60.345 8.53326 60.8722C8.32368 61.0209 8.11583 61.1684 7.93835 61.3853C7.1318 62.3711 3.27821 68.017 3.27821 70.5263C3.27821 73.0356 4.7121 76.3515 9.55147 75.5449C9.79923 75.5036 10.036 75.4633 10.2628 75.4246C14.4666 74.708 15.2751 74.5702 20.0368 79.757C21.7835 81.6597 24.2902 84.8434 27.1034 88.4164C32.3729 95.1092 38.7178 103.168 43.1582 106.732C49.9692 112.199 66.9069 117.576 70.8501 117.934C74.7933 118.293 79.7223 107.897 80.7081 105.567C80.8204 105.302 81.0303 104.829 81.3138 104.191C83.5194 99.2292 90.177 84.2505 89.9387 78.7712C89.7762 75.0328 89.1222 74.1768 88.4918 73.3518C88.0795 72.8121 87.6772 72.2856 87.4293 70.9744C87.025 68.8372 87.4769 65.9181 87.8492 63.513C88.0546 62.1867 88.2357 61.0166 88.2357 60.2203C88.2357 59.4632 88.3278 58.6688 88.4186 57.8853C88.5965 56.35 88.7696 54.8565 88.2357 53.7678Z" fill="white"/>
</svg>
