<svg width="24" height="24" viewBox="0 0 24 24" fill="none" xmlns="http://www.w3.org/2000/svg">
<path d="M10.25 9C9.23438 9 8.35938 8.39375 7.96875 7.525C7.61875 8.10938 6.98125 8.5 6.25 8.5C5.14688 8.5 4.25 7.60313 4.25 6.5C4.25 5.39688 5.14688 4.5 6.25 4.5C6.98125 4.5 7.61875 4.89062 7.96875 5.475C8.35938 4.60625 9.23438 4 10.25 4C11.2656 4 12.1406 4.60625 12.5312 5.475C12.8813 4.89062 13.5188 4.5 14.25 4.5C15.3531 4.5 16.25 5.39688 16.25 6.5C16.25 7.60313 15.3531 8.5 14.25 8.5C13.5188 8.5 12.8813 8.10938 12.5312 7.525C12.1406 8.39375 11.2656 9 10.25 9ZM4.75 20V9.1C5.19063 9.35313 5.70312 9.5 6.25 9.5C6.8375 9.5 7.38125 9.33125 7.84375 9.04063C8.47188 9.63438 9.31563 10 10.25 10C11.1844 10 12.0281 9.63438 12.6562 9.04063C13.1187 9.33125 13.6656 9.5 14.25 9.5C14.8625 9.5 15.4344 9.31563 15.9094 9H18.75H19.75V10V15.5V16.15L19.1562 16.4125L15.75 17.9281V20H4.75ZM15.75 15.7375L17.75 14.85V11H15.75V15.7375ZM8.75 11.5V11H7.75V11.5V16.5V17H8.75V16.5V11.5ZM10.75 11.5V11H9.75V11.5V16.5V17H10.75V16.5V11.5ZM12.75 11.5V11H11.75V11.5V16.5V17H12.75V16.5V11.5Z" fill="white"/>
</svg>
