<svg width="20" height="20" viewBox="0 0 20 20" fill="none" xmlns="http://www.w3.org/2000/svg">
<path d="M12.501 10C12.501 13.6823 10.8213 16.6667 8.75098 16.6667C6.68066 16.6667 5.00098 13.6823 5.00098 10C5.00098 6.31775 6.68066 3.33337 8.75098 3.33337C10.8213 3.33337 12.501 6.31775 12.501 10ZM9.79785 14.4115C10.0947 14.099 10.3213 13.6901 10.4958 13.2552C10.8447 12.3802 11.0426 11.2292 11.0426 10C11.0426 8.77087 10.8447 7.61983 10.4958 6.74483C10.3213 6.30994 10.0947 5.90108 9.79785 5.58858C9.49837 5.27348 9.0765 5.00004 8.54264 5.00004C8.00879 5.00004 7.58691 5.27348 7.28743 5.58858C6.99316 5.90108 6.764 6.30994 6.58952 6.74483C6.24056 7.61983 6.04264 8.77087 6.04264 10C6.04264 11.2292 6.24056 12.3802 6.58952 13.2552C6.764 13.6901 6.99056 14.099 7.28743 14.4115C7.58691 14.7266 8.00879 15 8.54264 15C9.0765 15 9.49837 14.7266 9.79785 14.4115ZM8.54264 14.1667C7.62337 14.1667 6.87598 12.3021 6.87598 10C6.87598 7.69796 7.62337 5.83337 8.54264 5.83337C9.46191 5.83337 10.2093 7.69796 10.2093 10C10.2093 12.3021 9.46191 14.1667 8.54264 14.1667ZM10.889 16.6667C11.2952 16.323 11.652 15.8933 11.9541 15.4167H13.613C13.0661 16.2032 12.3942 16.6667 11.6702 16.6667H10.889ZM14.0895 14.5834H12.4046C12.7484 13.8438 13.0036 12.9974 13.1598 12.0834H14.8343C14.6781 13.0261 14.4202 13.8776 14.0869 14.5834H14.0895ZM14.9437 11.25H13.2718C13.3135 10.8412 13.3343 10.4245 13.3343 10C13.3343 9.57556 13.3135 9.15889 13.2718 8.75004H14.9411C14.9801 9.15369 14.9984 9.57296 14.9984 10C14.9984 10.4271 14.9775 10.8464 14.9411 11.25H14.9437ZM14.8369 7.91671H13.1598C13.0036 7.00264 12.7458 6.15629 12.4046 5.41671H14.0895C14.4229 6.12244 14.6807 6.974 14.8369 7.91671ZM13.613 4.58337H11.9541C11.6546 4.10681 11.2979 3.67712 10.889 3.33337H11.6676C12.3942 3.33337 13.0635 3.79692 13.6104 4.58337H13.613Z" fill="#F1C34D"/>
</svg>
