<svg viewBox="0 0 14 14" fill="none" xmlns="http://www.w3.org/2000/svg">
<path d="M10.6167 0.884766H3.38978V2.3262H10.6167V0.884766Z" fill="#F1C34D"/>
<path d="M10.6167 6.66181H9.1713V5.22091H7.72592V6.66234H9.1713V8.10324H10.6167V6.66181Z" fill="#F1C34D"/>
<path d="M4.83516 6.66629H3.38978V8.10772H4.83516V6.66629Z" fill="#F1C34D"/>
<path d="M10.6167 12.4433H3.38978V13.8848H10.6167V12.4433Z" fill="#F1C34D"/>
<path d="M4.83516 8.11167H6.28054V9.5531H4.83516V8.11167Z" fill="#F1C34D"/>
<path d="M7.72592 8.11167H9.1713V9.5531H7.72592V8.11167Z" fill="#F1C34D"/>
<path d="M12.0582 10.998L10.6167 10.9979V12.4394H12.0621V10.9979L13.5035 10.998V3.77105H12.0621V2.33015H10.6167V3.77158H12.0582V10.998Z" fill="#F1C34D"/>
<path d="M1.94445 10.998L3.38978 10.9979V12.4394H1.9444L1.94445 10.998H0.499069V6.66181H0.495117V3.77105H1.9405V6.66181H1.94445V10.998Z" fill="#F1C34D"/>
<path d="M3.38978 2.33015H1.9444V3.77158H3.38978V2.33015Z" fill="#F1C34D"/>
<path d="M6.28054 9.55705H7.72592V10.9985H6.28054V9.55705Z" fill="#F1C34D"/>
<path d="M7.72592 3.77553H6.28054V5.21696H7.72592V3.77553Z" fill="#F1C34D"/>
<path d="M6.28054 5.22091H4.83516V6.66234H6.28054V5.22091Z" fill="#F1C34D"/>
</svg>
