<svg width="78" height="20" viewBox="0 0 78 20" fill="none" xmlns="http://www.w3.org/2000/svg">
<g opacity="0.5">
<path d="M12.0001 11.2001C11.9658 11.6828 11.6824 13.1578 9.60012 13.6C8.14023 13.9099 7.23284 14.1363 6.00007 16C5.96111 15.7651 5.88516 15.5709 5.81263 15.3854C5.62708 14.9108 5.46396 14.4936 6.00007 13.6C6.00007 13.6 2.82306 13.5842 0 10.0001C2.82306 6.41598 6.00007 6.40003 6.00007 6.40003C5.46396 5.5064 5.62708 5.08919 5.81263 4.61463C5.88516 4.42914 5.96111 4.23489 6.00007 4C7.23284 5.86369 8.14023 6.09005 9.60012 6.40003C11.6824 6.84216 11.9658 8.31722 12.0001 8.7999V11.2001Z" fill="#5C5641"/>
<rect x="12" y="9.5" width="57.9998" height="1" fill="#5C5641"/>
<path d="M70 10.8001C70.0229 11.1219 70.2118 12.1052 71.6 12.4C72.5733 12.6066 73.1782 12.7575 74 14C74.026 13.8434 74.0767 13.7139 74.125 13.5902C74.2487 13.2739 74.3575 12.9957 74 12.4C74 12.4 76.1181 12.3894 78.0001 10C76.1181 7.61065 74 7.60002 74 7.60002C74.3575 7.00427 74.2487 6.72613 74.125 6.40975C74.0767 6.28609 74.026 6.15659 74 6C73.1782 7.24246 72.5733 7.39337 71.6 7.60002C70.2118 7.89477 70.0229 8.87815 70 9.19993V10.8001Z" fill="#5C5641"/>
</g>
</svg>
