<svg width="78" height="20" viewBox="0 0 78 20" fill="none" xmlns="http://www.w3.org/2000/svg">
<g opacity="0.5">
<path d="M8.0001 10.8001C7.97718 11.1219 7.78827 12.1052 6.40008 12.4C5.42682 12.6066 4.8219 12.7575 4.00005 14C3.97407 13.8434 3.92344 13.7139 3.87509 13.5902C3.75139 13.2739 3.64264 12.9957 4.00005 12.4C4.00005 12.4 1.88204 12.3894 0 10C1.88204 7.61065 4.00005 7.60002 4.00005 7.60002C3.64264 7.00427 3.75139 6.72613 3.87509 6.40975C3.92344 6.28609 3.97407 6.15659 4.00005 6C4.8219 7.24246 5.42682 7.39337 6.40008 7.60002C7.78827 7.89477 7.97718 8.87815 8.0001 9.19993V10.8001Z" fill="#5C5641"/>
<rect x="8" y="9.5" width="57.9998" height="1" fill="#5C5641"/>
<path d="M66 11.2001C66.0344 11.6828 66.3177 13.1578 68.4 13.6C69.8599 13.9099 70.7673 14.1363 72.0001 16C72.039 15.7651 72.115 15.5709 72.1875 15.3854C72.3731 14.9108 72.5362 14.4936 72.0001 13.6C72.0001 13.6 75.1771 13.5842 78.0001 10.0001C75.1771 6.41598 72.0001 6.40003 72.0001 6.40003C72.5362 5.5064 72.3731 5.08919 72.1875 4.61463C72.115 4.42914 72.039 4.23489 72.0001 4C70.7673 5.86369 69.8599 6.09005 68.4 6.40003C66.3177 6.84216 66.0344 8.31722 66 8.7999V11.2001Z" fill="#5C5641"/>
</g>
</svg>
