<svg width="24" height="24" viewBox="0 0 24 24" fill="none" xmlns="http://www.w3.org/2000/svg">
<path d="M12 3L13.5363 4.0125L15.375 3.90352L16.2012 5.54883L17.8465 6.375L17.7375 8.21367L18.75 9.75L17.7375 11.2863L17.8465 13.125L16.2012 13.9512L15.375 15.5965L13.5363 15.4875L12 16.5L10.4637 15.4875L8.625 15.5965L7.79883 13.9512L6.15352 13.125L6.2625 11.2863L5.25 9.75L6.2625 8.21367L6.15352 6.375L7.79883 5.54883L8.625 3.90352L10.4637 4.0125L12 3ZM14.8125 9.75C14.8125 9.00408 14.5162 8.28871 13.9887 7.76126C13.4613 7.23382 12.7459 6.9375 12 6.9375C11.2541 6.9375 10.5387 7.23382 10.0113 7.76126C9.48382 8.28871 9.1875 9.00408 9.1875 9.75C9.1875 10.4959 9.48382 11.2113 10.0113 11.7387C10.5387 12.2662 11.2541 12.5625 12 12.5625C12.7459 12.5625 13.4613 12.2662 13.9887 11.7387C14.5162 11.2113 14.8125 10.4959 14.8125 9.75ZM5.25 19.0312L7.00078 14.8688L7.61953 16.0992L7.95 16.7602L8.68828 16.718L10.1543 16.6336L11.2758 17.3719L9.75 21L7.91484 19.0312H5.25ZM14.25 21L12.7207 17.3719L13.8422 16.6336L15.3082 16.718L16.0465 16.7602L16.377 16.0992L16.9957 14.8688L18.75 19.0312H16.0852L14.25 21Z" fill="white"/>
</svg>
