<svg width="24" height="24" viewBox="0 0 24 24" fill="none" xmlns="http://www.w3.org/2000/svg">
<path d="M6.4 8.80001C6.4 7.95131 6.73714 7.13738 7.33726 6.53726C7.93737 5.93715 8.75131 5.60001 9.6 5.60001C10.4487 5.60001 11.2626 5.93715 11.8627 6.53726C12.4629 7.13738 12.8 7.95131 12.8 8.80001C12.8 9.6487 12.4629 10.4626 11.8627 11.0627C11.2626 11.6629 10.4487 12 9.6 12C8.75131 12 7.93737 11.6629 7.33726 11.0627C6.73714 10.4626 6.4 9.6487 6.4 8.80001ZM13.6 13.2L15.2 18.4H4L5.6 13.2H13.6ZM20 18.4H16.0375L15.965 18.165L14.56 13.6H18.4L20 18.4ZM14.8 12C14.025 12 13.325 11.685 12.8175 11.1775C13.31 10.5125 13.6 9.69001 13.6 8.80001C13.6 8.13001 13.435 7.49751 13.1425 6.94251C13.6075 6.60251 14.18 6.40001 14.8 6.40001C16.3475 6.40001 17.6 7.65251 17.6 9.20001C17.6 10.7475 16.3475 12 14.8 12Z" fill="white"/>
</svg>
