<svg width="24" height="24" viewBox="0 0 24 24" fill="none" xmlns="http://www.w3.org/2000/svg">
<path d="M15.5 7.5C15.5 9.08437 14.4469 10.425 13 10.8562V14H11V10.8562C9.55312 10.425 8.5 9.0875 8.5 7.5C8.5 5.56562 10.0656 4 12 4C13.9344 4 15.5 5.56562 15.5 7.5ZM11.25 7C11.4489 7 11.6397 6.92098 11.7803 6.78033C11.921 6.63968 12 6.44891 12 6.25C12 6.05109 11.921 5.86032 11.7803 5.71967C11.6397 5.57902 11.4489 5.5 11.25 5.5C11.0511 5.5 10.8603 5.57902 10.7197 5.71967C10.579 5.86032 10.5 6.05109 10.5 6.25C10.5 6.44891 10.579 6.63968 10.7197 6.78033C10.8603 6.92098 11.0511 7 11.25 7ZM7 14H9V15H19V20H5V15H7V14Z" fill="white"/>
</svg>
