<svg width="24" height="24" viewBox="0 0 24 24" fill="none" xmlns="http://www.w3.org/2000/svg">
<path d="M11.1113 5.7778C11.1113 5.28697 11.5086 4.88892 12.0002 4.88892C15.928 4.88892 19.1113 8.07225 19.1113 12C19.1113 13.2945 18.7641 14.5111 18.1586 15.5556C17.9141 15.9806 17.3697 16.1278 16.9197 15.8806C16.5197 15.6361 16.3752 15.0917 16.6197 14.6417C17.0724 13.8834 17.3336 12.9722 17.3336 11.975C17.3336 9.03058 14.9447 6.64169 12.0002 6.64169C11.5086 6.64169 11.1113 6.26864 11.1113 5.7528V5.7778Z" fill="white"/>
<path opacity="0.25" d="M11.9748 6.66669C9.03034 6.66669 6.64145 9.03058 6.64145 12C6.64145 14.9445 9.03034 17.3334 11.9748 17.3334C13.947 17.3334 15.647 16.2917 16.5803 14.7334L16.5831 14.7361C16.3914 15.15 16.5414 15.6473 16.9192 15.8806C17.3692 16.1278 17.9137 15.9806 18.1581 15.5556C18.1637 15.5472 18.1692 15.5389 18.172 15.5306C16.947 17.6695 14.6414 19.1111 11.9998 19.1111C8.07201 19.1111 4.88867 15.9278 4.88867 12C4.88867 8.07225 8.07201 4.88892 11.9998 4.88892C11.5081 4.88892 11.1109 5.28697 11.1109 5.7778C11.1109 6.26864 11.5081 6.66669 11.9998 6.66669H11.9748Z" fill="white"/>
</svg>
