<svg viewBox="0 0 24 24" fill="none" xmlns="http://www.w3.org/2000/svg">
<path d="M3.89461 5.98495H4.63145V6.7218H3.89461V5.98495Z" />
<path d="M4.63145 5.98495H5.36829V6.7218H4.63145V5.98495Z" />
<path d="M5.36829 5.98495H6.10513V6.7218H5.36829V5.98495Z" />
<path d="M17.1578 5.98495H17.8946V6.7218H17.1578V5.98495Z" />
<path d="M17.8946 5.98495H18.6314V6.7218H17.8946V5.98495Z" />
<path d="M18.6314 5.98495H19.3683V6.7218H18.6314V5.98495Z" />
<path d="M19.3683 5.98495H20.1051V6.7218H19.3683V5.98495Z" />
<path d="M3.15777 6.7218H3.89461V7.45864H3.15777V6.7218Z" />
<path d="M3.89461 6.7218H4.63145V7.45864H3.89461V6.7218Z" />
<path d="M4.63145 6.7218H5.36829V7.45864H4.63145V6.7218Z" />
<path d="M5.36829 6.7218H6.10513V7.45864H5.36829V6.7218Z" />
<path d="M6.10513 6.7218H6.84198V7.45864H6.10513V6.7218Z" />
<path d="M6.84198 6.7218H7.57882V7.45864H6.84198V6.7218Z" />
<path d="M7.57882 6.7218H8.31566V7.45864H7.57882V6.7218Z" />
<path d="M14.2104 6.7218H14.9472V7.45864H14.2104V6.7218Z" />
<path d="M14.9472 6.7218H15.6841V7.45864H14.9472V6.7218Z" />
<path d="M15.6841 6.7218H16.4209V7.45864H15.6841V6.7218Z" />
<path d="M16.4209 6.7218H17.1578V7.45864H16.4209V6.7218Z" />
<path d="M17.1578 6.7218H17.8946V7.45864H17.1578V6.7218Z" />
<path d="M17.8946 6.7218H18.6314V7.45864H17.8946V6.7218Z" />
<path d="M18.6314 6.7218H19.3683V7.45864H18.6314V6.7218Z" />
<path d="M19.3683 6.7218H20.1051V7.45864H19.3683V6.7218Z" />
<path d="M20.1051 6.7218H20.842V7.45864H20.1051V6.7218Z" />
<path d="M3.15777 7.45864H3.89461V8.19548H3.15777V7.45864Z" />
<path d="M3.89461 7.45864H4.63145V8.19548H3.89461V7.45864Z" />
<path d="M4.63145 7.45864H5.36829V8.19548H4.63145V7.45864Z" />
<path d="M5.36829 7.45864H6.10513V8.19548H5.36829V7.45864Z" />
<path d="M6.10513 7.45864H6.84198V8.19548H6.10513V7.45864Z" />
<path d="M6.84198 7.45864H7.57882V8.19548H6.84198V7.45864Z" />
<path d="M7.57882 7.45864H8.31566V8.19548H7.57882V7.45864Z" />
<path d="M8.31566 7.45864H9.0525V8.19548H8.31566V7.45864Z" />
<path d="M9.0525 7.45864H9.78934V8.19548H9.0525V7.45864Z" />
<path d="M10.5262 7.45864H11.263V8.19548H10.5262V7.45864Z" />
<path d="M11.263 7.45864H11.9999V8.19548H11.263V7.45864Z" />
<path d="M11.9999 7.45864H12.7367V8.19548H11.9999V7.45864Z" />
<path d="M12.7367 7.45864H13.4736V8.19548H12.7367V7.45864Z" />
<path d="M13.4736 7.45864H14.2104V8.19548H13.4736V7.45864Z" />
<path d="M14.2104 7.45864H14.9472V8.19548H14.2104V7.45864Z" />
<path d="M14.9472 7.45864H15.6841V8.19548H14.9472V7.45864Z" />
<path d="M15.6841 7.45864H16.4209V8.19548H15.6841V7.45864Z" />
<path d="M16.4209 7.45864H17.1578V8.19548H16.4209V7.45864Z" />
<path d="M17.1578 7.45864H17.8946V8.19548H17.1578V7.45864Z" />
<path d="M17.8946 7.45864H18.6314V8.19548H17.8946V7.45864Z" />
<path d="M18.6314 7.45864H19.3683V8.19548H18.6314V7.45864Z" />
<path d="M19.3683 7.45864H20.1051V8.19548H19.3683V7.45864Z" />
<path d="M20.1051 7.45864H20.842V8.19548H20.1051V7.45864Z" />
<path d="M2.42092 8.19548H3.15777V8.93232H2.42092V8.19548Z" />
<path d="M3.15777 8.19548H3.89461V8.93232H3.15777V8.19548Z" />
<path d="M3.89461 8.19548H4.63145V8.93232H3.89461V8.19548Z" />
<path d="M4.63145 8.19548H5.36829V8.93232H4.63145V8.19548Z" />
<path d="M5.36829 8.19548H6.10513V8.93232H5.36829V8.19548Z" />
<path d="M6.10513 8.19548H6.84198V8.93232H6.10513V8.19548Z" />
<path d="M6.84198 8.19548H7.57882V8.93232H6.84198V8.19548Z" />
<path d="M7.57882 8.19548H8.31566V8.93232H7.57882V8.19548Z" />
<path d="M8.31566 8.19548H9.0525V8.93232H8.31566V8.19548Z" />
<path d="M9.78934 8.19548H10.5262V8.93232H9.78934V8.19548Z" />
<path d="M10.5262 8.19548H11.263V8.93232H10.5262V8.19548Z" />
<path d="M11.263 8.19548H11.9999V8.93232H11.263V8.19548Z" />
<path d="M11.9999 8.19548H12.7367V8.93232H11.9999V8.19548Z" />
<path d="M12.7367 8.19548H13.4736V8.93232H12.7367V8.19548Z" />
<path d="M13.4736 8.19548H14.2104V8.93232H13.4736V8.19548Z" />
<path d="M14.2104 8.19548H14.9472V8.93232H14.2104V8.19548Z" />
<path d="M14.9472 8.19548H15.6841V8.93232H14.9472V8.19548Z" />
<path d="M15.6841 8.19548H16.4209V8.93232H15.6841V8.19548Z" />
<path d="M16.4209 8.19548H17.1578V8.93232H16.4209V8.19548Z" />
<path d="M17.1578 8.19548H17.8946V8.93232H17.1578V8.19548Z" />
<path d="M17.8946 8.19548H18.6314V8.93232H17.8946V8.19548Z" />
<path d="M18.6314 8.19548H19.3683V8.93232H18.6314V8.19548Z" />
<path d="M19.3683 8.19548H20.1051V8.93232H19.3683V8.19548Z" />
<path d="M20.1051 8.19548H20.842V8.93232H20.1051V8.19548Z" />
<path d="M20.842 8.19548H21.5788V8.93232H20.842V8.19548Z" />
<path d="M2.42092 8.93232H3.15777V9.66917H2.42092V8.93232Z" />
<path d="M3.15777 8.93232H3.89461V9.66917H3.15777V8.93232Z" />
<path d="M3.89461 8.93232H4.63145V9.66917H3.89461V8.93232Z" />
<path d="M4.63145 8.93232H5.36829V9.66917H4.63145V8.93232Z" />
<path d="M5.36829 8.93232H6.10513V9.66917H5.36829V8.93232Z" />
<path d="M6.10513 8.93232H6.84198V9.66917H6.10513V8.93232Z" />
<path d="M6.84198 8.93232H7.57882V9.66917H6.84198V8.93232Z" />
<path d="M7.57882 8.93232H8.31566V9.66917H7.57882V8.93232Z" />
<path d="M9.0525 8.93232H9.78934V9.66917H9.0525V8.93232Z" />
<path d="M9.78934 8.93232H10.5262V9.66917H9.78934V8.93232Z" />
<path d="M10.5262 8.93232H11.263V9.66917H10.5262V8.93232Z" />
<path d="M11.263 8.93232H11.9999V9.66917H11.263V8.93232Z" />
<path d="M11.9999 8.93232H12.7367V9.66917H11.9999V8.93232Z" />
<path d="M12.7367 8.93232H13.4736V9.66917H12.7367V8.93232Z" />
<path d="M13.4736 8.93232H14.2104V9.66917H13.4736V8.93232Z" />
<path d="M14.2104 8.93232H14.9472V9.66917H14.2104V8.93232Z" />
<path d="M14.9472 8.93232H15.6841V9.66917H14.9472V8.93232Z" />
<path d="M15.6841 8.93232H16.4209V9.66917H15.6841V8.93232Z" />
<path d="M16.4209 8.93232H17.1578V9.66917H16.4209V8.93232Z" />
<path d="M17.1578 8.93232H17.8946V9.66917H17.1578V8.93232Z" />
<path d="M17.8946 8.93232H18.6314V9.66917H17.8946V8.93232Z" />
<path d="M18.6314 8.93232H19.3683V9.66917H18.6314V8.93232Z" />
<path d="M19.3683 8.93232H20.1051V9.66917H19.3683V8.93232Z" />
<path d="M20.1051 8.93232H20.842V9.66917H20.1051V8.93232Z" />
<path d="M20.842 8.93232H21.5788V9.66917H20.842V8.93232Z" />
<path d="M1.68408 9.66917H2.42092V10.406H1.68408V9.66917Z" />
<path d="M2.42092 9.66917H3.15777V10.406H2.42092V9.66917Z" />
<path d="M3.15777 9.66917H3.89461V10.406H3.15777V9.66917Z" />
<path d="M3.89461 9.66917H4.63145V10.406H3.89461V9.66917Z" />
<path d="M4.63145 9.66917H5.36829V10.406H4.63145V9.66917Z" />
<path d="M5.36829 9.66917H6.10513V10.406H5.36829V9.66917Z" />
<path d="M6.10513 9.66917H6.84198V10.406H6.10513V9.66917Z" />
<path d="M6.84198 9.66917H7.57882V10.406H6.84198V9.66917Z" />
<path d="M7.57882 9.66917H8.31566V10.406H7.57882V9.66917Z" />
<path d="M9.0525 9.66917H9.78934V10.406H9.0525V9.66917Z" />
<path d="M9.78934 9.66917H10.5262V10.406H9.78934V9.66917Z" />
<path d="M10.5262 9.66917H11.263V10.406H10.5262V9.66917Z" />
<path d="M13.4736 9.66917H14.2104V10.406H13.4736V9.66917Z" />
<path d="M14.2104 9.66917H14.9472V10.406H14.2104V9.66917Z" />
<path d="M14.9472 9.66917H15.6841V10.406H14.9472V9.66917Z" />
<path d="M15.6841 9.66917H16.4209V10.406H15.6841V9.66917Z" />
<path d="M16.4209 9.66917H17.1578V10.406H16.4209V9.66917Z" />
<path d="M17.1578 9.66917H17.8946V10.406H17.1578V9.66917Z" />
<path d="M17.8946 9.66917H18.6314V10.406H17.8946V9.66917Z" />
<path d="M18.6314 9.66917H19.3683V10.406H18.6314V9.66917Z" />
<path d="M19.3683 9.66917H20.1051V10.406H19.3683V9.66917Z" />
<path d="M20.1051 9.66917H20.842V10.406H20.1051V9.66917Z" />
<path d="M20.842 9.66917H21.5788V10.406H20.842V9.66917Z" />
<path d="M21.5788 9.66917H22.3157V10.406H21.5788V9.66917Z" />
<path d="M1.68408 10.406H2.42092V11.1428H1.68408V10.406Z" />
<path d="M2.42092 10.406H3.15777V11.1428H2.42092V10.406Z" />
<path d="M3.15777 10.406H3.89461V11.1428H3.15777V10.406Z" />
<path d="M3.89461 10.406H4.63145V11.1428H3.89461V10.406Z" />
<path d="M4.63145 10.406H5.36829V11.1428H4.63145V10.406Z" />
<path d="M5.36829 10.406H6.10513V11.1428H5.36829V10.406Z" />
<path d="M6.10513 10.406H6.84198V11.1428H6.10513V10.406Z" />
<path d="M6.84198 10.406H7.57882V11.1428H6.84198V10.406Z" />
<path d="M7.57882 10.406H8.31566V11.1428H7.57882V10.406Z" />
<path d="M9.0525 10.406H9.78934V11.1428H9.0525V10.406Z" />
<path d="M9.78934 10.406H10.5262V11.1428H9.78934V10.406Z" />
<path d="M10.5262 10.406H11.263V11.1428H10.5262V10.406Z" />
<path d="M11.9999 10.406H12.7367V11.1428H11.9999V10.406Z" />
<path d="M12.7367 10.406H13.4736V11.1428H12.7367V10.406Z" />
<path d="M14.9472 10.406H15.6841V11.1428H14.9472V10.406Z" />
<path d="M15.6841 10.406H16.4209V11.1428H15.6841V10.406Z" />
<path d="M16.4209 10.406H17.1578V11.1428H16.4209V10.406Z" />
<path d="M17.1578 10.406H17.8946V11.1428H17.1578V10.406Z" />
<path d="M17.8946 10.406H18.6314V11.1428H17.8946V10.406Z" />
<path d="M18.6314 10.406H19.3683V11.1428H18.6314V10.406Z" />
<path d="M19.3683 10.406H20.1051V11.1428H19.3683V10.406Z" />
<path d="M20.1051 10.406H20.842V11.1428H20.1051V10.406Z" />
<path d="M20.842 10.406H21.5788V11.1428H20.842V10.406Z" />
<path d="M21.5788 10.406H22.3157V11.1428H21.5788V10.406Z" />
<path d="M1.68408 11.1428H2.42092V11.8797H1.68408V11.1428Z" />
<path d="M2.42092 11.1428H3.15777V11.8797H2.42092V11.1428Z" />
<path d="M3.15777 11.1428H3.89461V11.8797H3.15777V11.1428Z" />
<path d="M3.89461 11.1428H4.63145V11.8797H3.89461V11.1428Z" />
<path d="M4.63145 11.1428H5.36829V11.8797H4.63145V11.1428Z" />
<path d="M5.36829 11.1428H6.10513V11.8797H5.36829V11.1428Z" />
<path d="M6.10513 11.1428H6.84198V11.8797H6.10513V11.1428Z" />
<path d="M6.84198 11.1428H7.57882V11.8797H6.84198V11.1428Z" />
<path d="M7.57882 11.1428H8.31566V11.8797H7.57882V11.1428Z" />
<path d="M9.0525 11.1428H9.78934V11.8797H9.0525V11.1428Z" />
<path d="M9.78934 11.1428H10.5262V11.8797H9.78934V11.1428Z" />
<path d="M11.263 11.1428H11.9999V11.8797H11.263V11.1428Z" />
<path d="M11.9999 11.1428H12.7367V11.8797H11.9999V11.1428Z" />
<path d="M12.7367 11.1428H13.4736V11.8797H12.7367V11.1428Z" />
<path d="M13.4736 11.1428H14.2104V11.8797H13.4736V11.1428Z" />
<path d="M14.2104 11.1428H14.9472V11.8797H14.2104V11.1428Z" />
<path d="M16.4209 11.1428H17.1578V11.8797H16.4209V11.1428Z" />
<path d="M17.1578 11.1428H17.8946V11.8797H17.1578V11.1428Z" />
<path d="M17.8946 11.1428H18.6314V11.8797H17.8946V11.1428Z" />
<path d="M18.6314 11.1428H19.3683V11.8797H18.6314V11.1428Z" />
<path d="M19.3683 11.1428H20.1051V11.8797H19.3683V11.1428Z" />
<path d="M20.1051 11.1428H20.842V11.8797H20.1051V11.1428Z" />
<path d="M20.842 11.1428H21.5788V11.8797H20.842V11.1428Z" />
<path d="M21.5788 11.1428H22.3157V11.8797H21.5788V11.1428Z" />
<path d="M1.68408 11.8797H2.42092V12.6165H1.68408V11.8797Z" />
<path d="M2.42092 11.8797H3.15777V12.6165H2.42092V11.8797Z" />
<path d="M3.15777 11.8797H3.89461V12.6165H3.15777V11.8797Z" />
<path d="M3.89461 11.8797H4.63145V12.6165H3.89461V11.8797Z" />
<path d="M4.63145 11.8797H5.36829V12.6165H4.63145V11.8797Z" />
<path d="M5.36829 11.8797H6.10513V12.6165H5.36829V11.8797Z" />
<path d="M6.10513 11.8797H6.84198V12.6165H6.10513V11.8797Z" />
<path d="M6.84198 11.8797H7.57882V12.6165H6.84198V11.8797Z" />
<path d="M7.57882 11.8797H8.31566V12.6165H7.57882V11.8797Z" />
<path d="M8.31566 11.8797H9.0525V12.6165H8.31566V11.8797Z" />
<path d="M10.5262 11.8797H11.263V12.6165H10.5262V11.8797Z" />
<path d="M11.263 11.8797H11.9999V12.6165H11.263V11.8797Z" />
<path d="M11.9999 11.8797H12.7367V12.6165H11.9999V11.8797Z" />
<path d="M12.7367 11.8797H13.4736V12.6165H12.7367V11.8797Z" />
<path d="M13.4736 11.8797H14.2104V12.6165H13.4736V11.8797Z" />
<path d="M14.2104 11.8797H14.9472V12.6165H14.2104V11.8797Z" />
<path d="M14.9472 11.8797H15.6841V12.6165H14.9472V11.8797Z" />
<path d="M15.6841 11.8797H16.4209V12.6165H15.6841V11.8797Z" />
<path d="M17.8946 11.8797H18.6314V12.6165H17.8946V11.8797Z" />
<path d="M18.6314 11.8797H19.3683V12.6165H18.6314V11.8797Z" />
<path d="M19.3683 11.8797H20.1051V12.6165H19.3683V11.8797Z" />
<path d="M20.1051 11.8797H20.842V12.6165H20.1051V11.8797Z" />
<path d="M20.842 11.8797H21.5788V12.6165H20.842V11.8797Z" />
<path d="M3.15777 12.6165H3.89461V13.3534H3.15777V12.6165Z" />
<path d="M3.89461 12.6165H4.63145V13.3534H3.89461V12.6165Z" />
<path d="M4.63145 12.6165H5.36829V13.3534H4.63145V12.6165Z" />
<path d="M5.36829 12.6165H6.10513V13.3534H5.36829V12.6165Z" />
<path d="M6.10513 12.6165H6.84198V13.3534H6.10513V12.6165Z" />
<path d="M6.84198 12.6165H7.57882V13.3534H6.84198V12.6165Z" />
<path d="M7.57882 12.6165H8.31566V13.3534H7.57882V12.6165Z" />
<path d="M8.31566 12.6165H9.0525V13.3534H8.31566V12.6165Z" />
<path d="M9.0525 12.6165H9.78934V13.3534H9.0525V12.6165Z" />
<path d="M9.78934 12.6165H10.5262V13.3534H9.78934V12.6165Z" />
<path d="M10.5262 12.6165H11.263V13.3534H10.5262V12.6165Z" />
<path d="M11.263 12.6165H11.9999V13.3534H11.263V12.6165Z" />
<path d="M11.9999 12.6165H12.7367V13.3534H11.9999V12.6165Z" />
<path d="M12.7367 12.6165H13.4736V13.3534H12.7367V12.6165Z" />
<path d="M13.4736 12.6165H14.2104V13.3534H13.4736V12.6165Z" />
<path d="M14.2104 12.6165H14.9472V13.3534H14.2104V12.6165Z" />
<path d="M14.9472 12.6165H15.6841V13.3534H14.9472V12.6165Z" />
<path d="M15.6841 12.6165H16.4209V13.3534H15.6841V12.6165Z" />
<path d="M16.4209 12.6165H17.1578V13.3534H16.4209V12.6165Z" />
<path d="M17.1578 12.6165H17.8946V13.3534H17.1578V12.6165Z" />
<path d="M18.6314 12.6165H19.3683V13.3534H18.6315L18.6314 12.6165Z" />
<path d="M19.3683 12.6165H20.1051V13.3534H19.3683V12.6165Z" />
<path d="M4.63145 13.3534H5.36829V14.0902H4.63145V13.3534Z" />
<path d="M5.36829 13.3534H6.10513V14.0902H5.36829V13.3534Z" />
<path d="M6.10513 13.3534H6.84198V14.0902H6.10513V13.3534Z" />
<path d="M6.84198 13.3534H7.57882V14.0902H6.84198V13.3534Z" />
<path d="M7.57882 13.3534H8.31566V14.0902H7.57882V13.3534Z" />
<path d="M8.31566 13.3534H9.0525V14.0902H8.31566V13.3534Z" />
<path d="M9.0525 13.3534H9.78934V14.0902H9.0525V13.3534Z" />
<path d="M9.78934 13.3534H10.5262V14.0902H9.78934V13.3534Z" />
<path d="M10.5262 13.3534H11.263V14.0902H10.5262V13.3534Z" />
<path d="M11.263 13.3534H11.9999V14.0902H11.263V13.3534Z" />
<path d="M11.9999 13.3534H12.7367V14.0902H11.9999V13.3534Z" />
<path d="M12.7367 13.3534H13.4736V14.0902H12.7367V13.3534Z" />
<path d="M13.4736 13.3534H14.2104V14.0902H13.4736V13.3534Z" />
<path d="M16.4209 13.3534H17.1578V14.0902H16.4209V13.3534Z" />
<path d="M17.1578 13.3534H17.8946V14.0902H17.1578V13.3534Z" />
<path d="M5.36829 14.0902H6.10513V14.8271H5.36829V14.0902Z" />
<path d="M6.10513 14.0902H6.84198V14.8271H6.10513V14.0902Z" />
<path d="M6.84198 14.0902H7.57882V14.8271H6.84198V14.0902Z" />
<path d="M7.57882 14.0902H8.31566V14.8271H7.57882V14.0902Z" />
<path d="M8.31566 14.0902H9.0525V14.8271H8.31566V14.0902Z" />
<path d="M9.0525 14.0902H9.78934V14.8271H9.0525V14.0902Z" />
<path d="M9.78934 14.0902H10.5262V14.8271H9.78934V14.0902Z" />
<path d="M10.5262 14.0902H11.263V14.8271H10.5262V14.0902Z" />
<path d="M11.263 14.0902H11.9999V14.8271H11.263V14.0902Z" />
<path d="M11.9999 14.0902H12.7367V14.8271H11.9999V14.0902Z" />
<path d="M12.7367 14.0902H13.4736V14.8271H12.7367V14.0902Z" />
<path d="M13.4736 14.0902H14.2104V14.8271H13.4736V14.0902Z" />
<path d="M14.2104 14.0902H14.9472V14.8271H14.2104V14.0902Z" />
<path d="M14.9472 14.0902H15.6841V14.8271H14.9472V14.0902Z" />
<path d="M15.6841 14.0902H16.4209V14.8271H15.6841V14.0902Z" />
<path d="M5.36829 14.8271H6.10513V15.5639H5.36829V14.8271Z" />
<path d="M6.10513 14.8271H6.84198V15.5639H6.10513V14.8271Z" />
<path d="M6.84198 14.8271H7.57882V15.5639H6.84198V14.8271Z" />
<path d="M7.57882 14.8271H8.31566V15.5639H7.57882V14.8271Z" />
<path d="M8.31566 14.8271H9.0525V15.5639H8.31566V14.8271Z" />
<path d="M9.0525 14.8271H9.78934V15.5639H9.0525V14.8271Z" />
<path d="M9.78934 14.8271H10.5262V15.5639H9.78934V14.8271Z" />
<path d="M10.5262 14.8271H11.263V15.5639H10.5262V14.8271Z" />
<path d="M11.263 14.8271H11.9999V15.5639H11.263V14.8271Z" />
<path d="M11.9999 14.8271H12.7367V15.5639H11.9999V14.8271Z" />
<path d="M12.7367 14.8271H13.4736V15.5639H12.7367V14.8271Z" />
<path d="M13.4736 14.8271H14.2104V15.5639H13.4736V14.8271Z" />
<path d="M14.2104 14.8271H14.9472V15.5639H14.2104V14.8271Z" />
<path d="M14.9472 14.8271H15.6841V15.5639H14.9472V14.8271Z" />
<path d="M15.6841 14.8271H16.4209V15.5639H15.6841V14.8271Z" />
<path d="M16.4209 14.8271H17.1578V15.5639H16.4209V14.8271Z" />
<path d="M6.10513 15.5639H6.84198V16.3007H6.10513V15.5639Z" />
<path d="M6.84198 15.5639H7.57882V16.3007H6.84198V15.5639Z" />
<path d="M7.57882 15.5639H8.31566V16.3007H7.57882V15.5639Z" />
<path d="M8.31566 15.5639H9.0525V16.3007H8.31566V15.5639Z" />
<path d="M9.0525 15.5639H9.78934V16.3007H9.0525V15.5639Z" />
<path d="M9.78934 15.5639H10.5262V16.3007H9.78934V15.5639Z" />
<path d="M10.5262 15.5639H11.263V16.3007H10.5262V15.5639Z" />
<path d="M11.263 15.5639H11.9999V16.3007H11.263V15.5639Z" />
<path d="M11.9999 15.5639H12.7367V16.3007H11.9999V15.5639Z" />
<path d="M12.7367 15.5639H13.4736V16.3007H12.7367V15.5639Z" />
<path d="M13.4736 15.5639H14.2104V16.3007H13.4736V15.5639Z" />
<path d="M15.6841 15.5639H16.4209V16.3007H15.6841V15.5639Z" />
<path d="M16.4209 15.5639H17.1578V16.3007H16.4209V15.5639Z" />
<path d="M4.63145 16.3007H5.36829V17.0376H4.63145V16.3007Z" />
<path d="M5.36829 16.3007H6.10513V17.0376H5.36829V16.3007Z" />
<path d="M8.31566 16.3007H9.0525V17.0376H8.31566V16.3007Z" />
<path d="M9.0525 16.3007H9.78934V17.0376H9.0525V16.3007Z" />
<path d="M9.78934 16.3007H10.5262V17.0376H9.78934V16.3007Z" />
<path d="M10.5262 16.3007H11.263V17.0376H10.5262V16.3007Z" />
<path d="M11.263 16.3007H11.9999V17.0376H11.263V16.3007Z" />
<path d="M11.9999 16.3007H12.7367V17.0376H11.9999V16.3007Z" />
<path d="M12.7367 16.3007H13.4736V17.0376H12.7367V16.3007Z" />
<path d="M13.4736 16.3007H14.2104V17.0376H13.4736V16.3007Z" />
<path d="M14.2104 16.3007H14.9472V17.0376H14.2104V16.3007Z" />
<path d="M14.9472 16.3007H15.6841V17.0376H14.9472V16.3007Z" />
<path d="M4.63145 17.0376H5.36829V17.7744H4.63145V17.0376Z" />
<path d="M5.36829 17.0376H6.10513V17.7744H5.36829V17.0376Z" />
<path d="M6.84198 17.0376H7.57882V17.7744H6.84198V17.0376Z" />
<path d="M7.57882 17.0376H8.31566V17.7744H7.57882V17.0376Z" />
<path d="M10.5262 17.0376H11.263V17.7744H10.5262V17.0376Z" />
<path d="M11.263 17.0376H11.9999V17.7744H11.263V17.0376Z" />
<path d="M11.9999 17.0376H12.7367V17.7744H11.9999V17.0376Z" />
<path d="M12.7367 17.0376H13.4736V17.7744H12.7367V17.0376Z" />
<path d="M13.4736 17.0376H14.2104V17.7744H13.4736V17.0376Z" />
<path d="M14.2104 17.0376H14.9472V17.7744H14.2104V17.0376Z" />
<path d="M14.9472 17.0376H15.6841V17.7744H14.9472V17.0376Z" />
<path d="M15.6841 17.0376H16.4209V17.7744H15.6841V17.0376Z" />
<path d="M6.84198 17.7744H7.57882V18.5113H6.84198V17.7744Z" />
<path d="M7.57882 17.7744H8.31566V18.5113H7.57882V17.7744Z" />
<path d="M9.0525 17.7744H9.78934V18.5113H9.0525V17.7744Z" />
<path d="M9.78934 17.7744H10.5262V18.5113H9.78934V17.7744Z" />
<path d="M12.7367 17.7744H13.4736V18.5113H12.7367V17.7744Z" />
<path d="M13.4736 17.7744H14.2104V18.5113H13.4736V17.7744Z" />
<path d="M15.6841 17.7744H16.4209V18.5113H15.6841V17.7744Z" />
<path d="M9.0525 18.5113H9.78934V19.2481H9.0525V18.5113Z" />
<path d="M9.78934 18.5113H10.5262V19.2481H9.78934V18.5113Z" />
<path d="M11.263 18.5113H11.9999V19.2481H11.263V18.5113Z" />
<path d="M11.9999 18.5113H12.7367V19.2481H11.9999V18.5113Z" />
<path d="M13.4736 18.5113H14.2104V19.2481H13.4736V18.5113Z" />
<path d="M14.2104 18.5113H14.9472V19.2481H14.2104V18.5113Z" />
<path d="M14.9472 18.5113H15.6841V19.2481H14.9472V18.5113Z" />
<path d="M11.263 19.2481H11.9999V19.985H11.263V19.2481Z" />
<path d="M11.9999 19.2481H12.7367V19.985H11.9999V19.2481Z" />
<path d="M14.2104 19.2481H14.9472V19.985H14.2104V19.2481Z" />
<path d="M14.9472 19.2481H15.6841V19.985H14.9472V19.2481Z" />
</svg>
