<svg width="24" height="24" viewBox="0 0 24 24" fill="none" xmlns="http://www.w3.org/2000/svg">
<path d="M15.6167 5.88477H8.38978V7.3262H15.6167V5.88477Z" fill="white"/>
<path d="M15.6167 11.6618H14.1713V10.2209H12.7259V11.6623H14.1713V13.1032H15.6167V11.6618Z" fill="white"/>
<path d="M9.83516 11.6663H8.38978V13.1077H9.83516V11.6663Z" fill="white"/>
<path d="M15.6167 17.4433H8.38978V18.8848H15.6167V17.4433Z" fill="white"/>
<path d="M9.83516 13.1117H11.2805V14.5531H9.83516V13.1117Z" fill="white"/>
<path d="M12.7259 13.1117H14.1713V14.5531H12.7259V13.1117Z" fill="white"/>
<path d="M17.0582 15.998L15.6167 15.9979V17.4394H17.0621V15.9979L18.5035 15.998V8.77105H17.0621V7.33015H15.6167V8.77158H17.0582V15.998Z" fill="white"/>
<path d="M6.94445 15.998L8.38978 15.9979V17.4394H6.9444L6.94445 15.998H5.49907V11.6618H5.49512V8.77105H6.9405V11.6618H6.94445V15.998Z" fill="white"/>
<path d="M8.38978 7.33015H6.9444V8.77158H8.38978V7.33015Z" fill="white"/>
<path d="M11.2805 14.557H12.7259V15.9985H11.2805V14.557Z" fill="white"/>
<path d="M12.7259 8.77553H11.2805V10.217H12.7259V8.77553Z" fill="white"/>
<path d="M11.2805 10.2209H9.83516V11.6623H11.2805V10.2209Z" fill="white"/>
</svg>
