<svg width="24" height="24" viewBox="0 0 24 24" fill="none" xmlns="http://www.w3.org/2000/svg">
<path d="M15.0015 12C15.0015 16.4187 12.9858 20 10.5015 20C8.01709 20 6.00146 16.4187 6.00146 12C6.00146 7.58125 8.01709 4 10.5015 4C12.9858 4 15.0015 7.58125 15.0015 12ZM11.7577 17.2937C12.114 16.9187 12.3858 16.4281 12.5952 15.9062C13.014 14.8562 13.2515 13.475 13.2515 12C13.2515 10.525 13.014 9.14375 12.5952 8.09375C12.3858 7.57188 12.114 7.08125 11.7577 6.70625C11.3983 6.32812 10.8921 6 10.2515 6C9.61084 6 9.10459 6.32812 8.74521 6.70625C8.39209 7.08125 8.11709 7.57188 7.90771 8.09375C7.48896 9.14375 7.25146 10.525 7.25146 12C7.25146 13.475 7.48896 14.8562 7.90771 15.9062C8.11709 16.4281 8.38896 16.9187 8.74521 17.2937C9.10459 17.6719 9.61084 18 10.2515 18C10.8921 18 11.3983 17.6719 11.7577 17.2937ZM10.2515 17C9.14834 17 8.25146 14.7625 8.25146 12C8.25146 9.2375 9.14834 7 10.2515 7C11.3546 7 12.2515 9.2375 12.2515 12C12.2515 14.7625 11.3546 17 10.2515 17ZM13.0671 20C13.5546 19.5875 13.9827 19.0719 14.3452 18.5H16.3358C15.6796 19.4438 14.8733 20 14.0046 20H13.0671ZM16.9077 17.5H14.8858C15.2983 16.6125 15.6046 15.5969 15.7921 14.5H17.8015C17.614 15.6313 17.3046 16.6531 16.9046 17.5H16.9077ZM17.9327 13.5H15.9265C15.9765 13.0094 16.0015 12.5094 16.0015 12C16.0015 11.4906 15.9765 10.9906 15.9265 10.5H17.9296C17.9765 10.9844 17.9983 11.4875 17.9983 12C17.9983 12.5125 17.9733 13.0156 17.9296 13.5H17.9327ZM17.8046 9.5H15.7921C15.6046 8.40312 15.2952 7.3875 14.8858 6.5H16.9077C17.3077 7.34687 17.6171 8.36875 17.8046 9.5ZM16.3358 5.5H14.3452C13.9858 4.92813 13.5577 4.4125 13.0671 4H14.0015C14.8733 4 15.6765 4.55625 16.3327 5.5H16.3358Z" fill="white"/>
</svg>
