<svg width="24" height="24" viewBox="0 0 24 24" fill="none" xmlns="http://www.w3.org/2000/svg">
<path d="M4.66667 4.88889H4V6.22222H4.66667H6.11389L7.78889 15.0139L7.89167 15.5556H8.44444H17.5556H18.2222V14.2222H17.5556H8.99722L8.74444 12.8889H17.7778L20 5.77777H7.38889L7.32222 5.43055L7.21944 4.88889H6.66667H4.66667ZM8.88889 19.1111C9.24251 19.1111 9.58165 18.9706 9.8317 18.7206C10.0817 18.4705 10.2222 18.1314 10.2222 17.7778C10.2222 17.4242 10.0817 17.085 9.8317 16.835C9.58165 16.5849 9.24251 16.4444 8.88889 16.4444C8.53527 16.4444 8.19613 16.5849 7.94608 16.835C7.69603 17.085 7.55556 17.4242 7.55556 17.7778C7.55556 18.1314 7.69603 18.4705 7.94608 18.7206C8.19613 18.9706 8.53527 19.1111 8.88889 19.1111ZM18.2222 17.7778C18.2222 17.4242 18.0817 17.085 17.8317 16.835C17.5816 16.5849 17.2425 16.4444 16.8889 16.4444C16.5353 16.4444 16.1961 16.5849 15.9461 16.835C15.696 17.085 15.5556 17.4242 15.5556 17.7778C15.5556 18.1314 15.696 18.4705 15.9461 18.7206C16.1961 18.9706 16.5353 19.1111 16.8889 19.1111C17.2425 19.1111 17.5816 18.9706 17.8317 18.7206C18.0817 18.4705 18.2222 18.1314 18.2222 17.7778Z" fill="white"/>
</svg>
