<svg width="24" height="24" viewBox="0 0 24 24" fill="none" xmlns="http://www.w3.org/2000/svg">
<path d="M7.04937 7.98578C7.04937 6.24512 8.45821 4.83627 10.1989 4.83627H11.0987V5.73613C11.0987 7.42899 9.76301 8.80971 8.08983 8.88283C7.41775 9.78831 7.04937 10.8935 7.04937 12.0351C7.04937 14.7685 9.26527 16.9844 11.9986 16.9844H14.0233H14.1836L14.327 17.0547L16.1267 17.9545L15.5221 19.1609L13.863 18.3342H11.9986H10.1342L8.47789 19.1637L7.8733 17.9573L8.82659 17.4793C8.68317 17.3949 8.54257 17.3078 8.40759 17.2122C6.7316 18.0052 4.69848 17.3893 3.75644 15.7555L3.30651 14.9766L3.69739 14.7516C4.08546 14.5266 4.49602 14.3832 4.91501 14.3157C3.77332 13.7111 3 12.5132 3 11.1353V10.2354H3.44993C3.89705 10.2354 4.32448 10.317 4.72098 10.466C4.03765 9.37494 3.96735 7.94922 4.6563 6.75691L5.10623 5.97797L5.49711 6.20293C6.23387 6.62756 6.76254 7.27714 7.04937 8.0139V7.98578ZM15.9074 8.88283C14.2342 8.80971 12.8985 7.42899 12.8985 5.73613V4.83627H13.7983C15.539 4.83627 16.9478 6.24512 16.9478 7.98578V8.0139C17.2347 7.27714 17.7633 6.63037 18.5029 6.20293L18.8938 5.97797L19.3437 6.75691C20.0327 7.94922 19.9595 9.37494 19.279 10.466C19.6755 10.317 20.103 10.2354 20.5501 10.2354H21V11.1353C21 12.5132 20.2267 13.7111 19.0878 14.3157C19.504 14.3832 19.9174 14.5266 20.3054 14.7516L20.6963 14.9766L20.2464 15.7555C19.6165 16.8466 18.5001 17.4821 17.3303 17.5496L16.526 17.1503L16.0086 16.8916L15.1537 16.4641L14.6504 16.2111C16.0311 15.3337 16.9478 13.7927 16.9478 12.0351C16.9478 10.8935 16.5794 9.78831 15.9074 8.88283Z" fill="white"/>
</svg>
