<svg width="24" height="24" viewBox="0 0 24 24" fill="none" xmlns="http://www.w3.org/2000/svg">
<path d="M14.6736 3.97998H18.238V7.54441H16.4558V5.7622H14.6736V3.97998Z" fill="white"/>
<path d="M14.6734 7.54447L14.6736 5.7622L12.8911 5.76226V9.32669H16.4556L16.4558 7.54441L14.6734 7.54447Z" fill="white"/>
<path d="M12.8911 9.32669H11.1096V5.76226H9.32735V7.54447H7.54513V9.32669H11.1096L11.1087 12.8911L9.32735 12.8911V14.6733H7.54513V16.4556L11.1087 16.4555V20.02H12.8909V16.4555H11.1087V12.8911H12.8909L12.8911 9.32669Z" fill="white"/>
<path d="M14.6734 14.6733V12.8911L12.8909 12.8911V16.4555L16.4556 16.4556V14.6733H14.6734Z" fill="white"/>
<path d="M14.6736 11.1089H18.238V14.6734L16.4556 14.6733L16.4558 12.8911L14.6734 12.8911L14.6736 11.1089Z" fill="white"/>
<path d="M5.7627 11.1089V14.6734L7.54513 14.6733L7.54491 12.8911L9.32735 12.8911L9.32713 11.1089H5.7627Z" fill="white"/>
<path d="M5.7627 3.97998V7.54441L7.54513 7.54447L7.54491 5.7622L9.32735 5.76226L9.32713 3.97998H5.7627Z" fill="white"/>
</svg>
