<svg viewBox="0 0 24 24" fill="none" xmlns="http://www.w3.org/2000/svg">
<path d="M7.9665 3.16666H9.66651V4.01666H10.5165V3.16666H12.2165V4.01666H13.0665V3.16666H14.7665V4.01666L15.6165 4.01666V4.86666H14.7665L14.7665 4.01666L13.0665 4.01666L13.0665 4.86666H12.2165L12.2165 4.01666H10.5165L10.5165 4.86666H9.6665L9.66651 4.01666L7.96651 4.01666V4.86666H7.11651V5.71666H6.2665V4.86666L7.11651 4.86666L7.1165 4.01666L7.96651 4.01666L7.9665 3.16666Z" />
<path d="M15.6165 4.86666L17.3165 4.86666V5.71666H15.6165L15.6165 4.86666Z" />
<path fill-rule="evenodd" clip-rule="evenodd" d="M6.2665 5.71666L5.4165 5.71676V7.41677H6.2665V17.6166H7.11651V19.3167H7.96651V20.1667H15.6166V19.3167H16.4667V17.6166H17.3167V16.7666H19.0167V15.9166H19.8667V15.0666H20.7167V10.8165L19.8664 10.8166V9.9666H19.0164V9.1166H17.3164V7.41659H14.7665V8.26659H13.9165V7.41659H12.2164V8.26659H11.3664V7.41659H9.66643V8.26659H8.81643V7.41659L6.2665 7.41677V5.71666ZM8.81634 16.7665H9.66634V10.8166H8.81634V16.7665ZM11.3663 16.7665H12.2163V10.8166H11.3663V16.7665ZM13.9162 16.7665H14.7662V10.8166H13.9162V16.7665ZM17.3163 15.0665H19.0163V10.8164H17.3163V15.0665Z" />
<path d="M17.3165 5.71666L18.1665 5.71676V7.41677L17.3164 7.41659L17.3165 5.71666Z" />
</svg>
